<svg width="142" height="30" viewBox="0 0 142 30" fill="none" xmlns="http://www.w3.org/2000/svg">
<path d="M49.304 21.126C49.064 21.126 48.878 21.06 48.746 20.928C48.626 20.784 48.566 20.592 48.566 20.352V9.066C48.566 8.814 48.632 8.628 48.764 8.508C48.896 8.376 49.082 8.31 49.322 8.31H53.588C54.944 8.31 55.988 8.646 56.72 9.318C57.452 9.978 57.818 10.914 57.818 12.126C57.818 13.326 57.452 14.262 56.72 14.934C55.988 15.606 54.944 15.942 53.588 15.942H50.042V20.352C50.042 20.592 49.982 20.784 49.862 20.928C49.742 21.06 49.556 21.126 49.304 21.126ZM50.042 14.7H53.408C54.38 14.7 55.112 14.484 55.604 14.052C56.108 13.608 56.36 12.966 56.36 12.126C56.36 11.274 56.108 10.632 55.604 10.2C55.112 9.756 54.38 9.534 53.408 9.534H50.042V14.7ZM65.4072 21C65.1433 21 64.9393 20.934 64.7953 20.802C64.6633 20.658 64.5973 20.454 64.5973 20.19V9.12C64.5973 8.856 64.6633 8.658 64.7953 8.526C64.9393 8.382 65.1433 8.31 65.4072 8.31H72.1033C72.3073 8.31 72.4633 8.364 72.5713 8.472C72.6793 8.58 72.7333 8.73 72.7333 8.922C72.7333 9.126 72.6793 9.282 72.5713 9.39C72.4633 9.498 72.3073 9.552 72.1033 9.552H66.0373V13.944H71.7253C71.9293 13.944 72.0853 13.998 72.1933 14.106C72.3013 14.202 72.3553 14.352 72.3553 14.556C72.3553 14.76 72.3013 14.916 72.1933 15.024C72.0853 15.132 71.9293 15.186 71.7253 15.186H66.0373V19.758H72.1033C72.3073 19.758 72.4633 19.812 72.5713 19.92C72.6793 20.028 72.7333 20.178 72.7333 20.37C72.7333 20.574 72.6793 20.73 72.5713 20.838C72.4633 20.946 72.3073 21 72.1033 21H65.4072ZM83.836 21.162C83.272 21.162 82.72 21.114 82.18 21.018C81.64 20.922 81.136 20.784 80.668 20.604C80.212 20.424 79.798 20.196 79.426 19.92C79.282 19.812 79.18 19.692 79.12 19.56C79.072 19.416 79.06 19.278 79.084 19.146C79.12 19.002 79.18 18.882 79.264 18.786C79.36 18.69 79.474 18.636 79.606 18.624C79.738 18.612 79.882 18.654 80.038 18.75C80.578 19.134 81.154 19.416 81.766 19.596C82.378 19.764 83.068 19.848 83.836 19.848C84.916 19.848 85.714 19.65 86.23 19.254C86.758 18.846 87.022 18.312 87.022 17.652C87.022 17.112 86.83 16.692 86.446 16.392C86.074 16.08 85.444 15.834 84.556 15.654L82.684 15.276C81.556 15.036 80.71 14.646 80.146 14.106C79.594 13.554 79.318 12.822 79.318 11.91C79.318 11.346 79.432 10.836 79.66 10.38C79.888 9.912 80.206 9.516 80.614 9.192C81.022 8.856 81.508 8.598 82.072 8.418C82.636 8.238 83.26 8.148 83.944 8.148C84.7 8.148 85.402 8.256 86.05 8.472C86.71 8.676 87.304 8.988 87.832 9.408C87.964 9.516 88.054 9.642 88.102 9.786C88.15 9.918 88.156 10.05 88.12 10.182C88.084 10.302 88.018 10.404 87.922 10.488C87.838 10.572 87.724 10.62 87.58 10.632C87.448 10.644 87.298 10.596 87.13 10.488C86.65 10.128 86.152 9.87 85.636 9.714C85.12 9.546 84.55 9.462 83.926 9.462C83.29 9.462 82.738 9.558 82.27 9.75C81.814 9.942 81.454 10.224 81.19 10.596C80.938 10.956 80.812 11.376 80.812 11.856C80.812 12.432 80.986 12.888 81.334 13.224C81.694 13.56 82.276 13.806 83.08 13.962L84.952 14.358C86.164 14.61 87.058 14.994 87.634 15.51C88.222 16.014 88.516 16.704 88.516 17.58C88.516 18.108 88.408 18.594 88.192 19.038C87.976 19.482 87.664 19.866 87.256 20.19C86.848 20.502 86.356 20.742 85.78 20.91C85.204 21.078 84.556 21.162 83.836 21.162ZM99.5509 21.162C98.9869 21.162 98.4349 21.114 97.8949 21.018C97.3549 20.922 96.8509 20.784 96.3829 20.604C95.9269 20.424 95.5129 20.196 95.1409 19.92C94.9969 19.812 94.8949 19.692 94.8349 19.56C94.7869 19.416 94.7749 19.278 94.7989 19.146C94.8349 19.002 94.8949 18.882 94.9789 18.786C95.0749 18.69 95.1889 18.636 95.3209 18.624C95.4529 18.612 95.5969 18.654 95.7529 18.75C96.2929 19.134 96.8689 19.416 97.4809 19.596C98.0929 19.764 98.7829 19.848 99.5509 19.848C100.631 19.848 101.429 19.65 101.945 19.254C102.473 18.846 102.737 18.312 102.737 17.652C102.737 17.112 102.545 16.692 102.161 16.392C101.789 16.08 101.159 15.834 100.271 15.654L98.3989 15.276C97.2709 15.036 96.4249 14.646 95.8609 14.106C95.3089 13.554 95.0329 12.822 95.0329 11.91C95.0329 11.346 95.1469 10.836 95.3749 10.38C95.6029 9.912 95.9209 9.516 96.3289 9.192C96.7369 8.856 97.2229 8.598 97.7869 8.418C98.3509 8.238 98.9749 8.148 99.6589 8.148C100.415 8.148 101.117 8.256 101.765 8.472C102.425 8.676 103.019 8.988 103.547 9.408C103.679 9.516 103.769 9.642 103.817 9.786C103.865 9.918 103.871 10.05 103.835 10.182C103.799 10.302 103.733 10.404 103.637 10.488C103.553 10.572 103.439 10.62 103.295 10.632C103.163 10.644 103.013 10.596 102.845 10.488C102.365 10.128 101.867 9.87 101.351 9.714C100.835 9.546 100.265 9.462 99.6409 9.462C99.0049 9.462 98.4529 9.558 97.9849 9.75C97.5289 9.942 97.1689 10.224 96.9049 10.596C96.6529 10.956 96.5269 11.376 96.5269 11.856C96.5269 12.432 96.7009 12.888 97.0489 13.224C97.4089 13.56 97.9909 13.806 98.7949 13.962L100.667 14.358C101.879 14.61 102.773 14.994 103.349 15.51C103.937 16.014 104.231 16.704 104.231 17.58C104.231 18.108 104.123 18.594 103.907 19.038C103.691 19.482 103.379 19.866 102.971 20.19C102.563 20.502 102.071 20.742 101.495 20.91C100.919 21.078 100.271 21.162 99.5509 21.162ZM116.49 21.162C115.314 21.162 114.288 20.898 113.412 20.37C112.548 19.83 111.876 19.074 111.396 18.102C110.928 17.13 110.694 15.978 110.694 14.646C110.694 13.638 110.826 12.738 111.09 11.946C111.366 11.142 111.756 10.464 112.26 9.912C112.764 9.348 113.37 8.916 114.078 8.616C114.798 8.304 115.602 8.148 116.49 8.148C117.69 8.148 118.722 8.412 119.586 8.94C120.462 9.468 121.134 10.218 121.602 11.19C122.082 12.15 122.322 13.296 122.322 14.628C122.322 15.636 122.184 16.542 121.908 17.346C121.632 18.15 121.242 18.834 120.738 19.398C120.234 19.962 119.622 20.4 118.902 20.712C118.194 21.012 117.39 21.162 116.49 21.162ZM116.49 19.848C117.402 19.848 118.17 19.644 118.794 19.236C119.43 18.828 119.916 18.234 120.252 17.454C120.588 16.674 120.756 15.738 120.756 14.646C120.756 13.002 120.384 11.73 119.64 10.83C118.908 9.918 117.858 9.462 116.49 9.462C115.602 9.462 114.84 9.666 114.204 10.074C113.58 10.482 113.1 11.076 112.764 11.856C112.428 12.624 112.26 13.554 112.26 14.646C112.26 16.278 112.632 17.556 113.376 18.48C114.12 19.392 115.158 19.848 116.49 19.848ZM129.331 21.126C129.139 21.126 128.983 21.084 128.863 21C128.755 20.904 128.689 20.784 128.665 20.64C128.653 20.484 128.689 20.31 128.773 20.118L133.723 8.85C133.831 8.61 133.957 8.442 134.101 8.346C134.257 8.238 134.425 8.184 134.605 8.184C134.785 8.184 134.947 8.238 135.091 8.346C135.247 8.442 135.373 8.61 135.469 8.85L140.437 20.118C140.533 20.31 140.569 20.484 140.545 20.64C140.533 20.796 140.473 20.916 140.365 21C140.257 21.084 140.107 21.126 139.915 21.126C139.699 21.126 139.525 21.072 139.393 20.964C139.261 20.844 139.153 20.676 139.069 20.46L137.737 17.382L138.457 17.76H130.717L131.455 17.382L130.141 20.46C130.033 20.688 129.919 20.856 129.799 20.964C129.679 21.072 129.523 21.126 129.331 21.126ZM134.587 10.038L131.689 16.86L131.257 16.518H137.917L137.521 16.86L134.623 10.038H134.587Z" fill="white"/>
<path d="M30 15L7.5 27.9904L7.5 2.00962L30 15Z" fill="white"/>
</svg>
